<?xml version="1.0" standalone="no"?>
<!DOCTYPE svg PUBLIC "-//W3C//DTD SVG 20010904//EN"
 "http://www.w3.org/TR/2001/REC-SVG-20010904/DTD/svg10.dtd">
<svg version="1.0" xmlns="http://www.w3.org/2000/svg"
 width="32.000000pt" height="32.000000pt" viewBox="0 0 32.000000 32.000000"
 preserveAspectRatio="xMidYMid meet">

<g transform="translate(0.000000,32.000000) scale(0.100000,-0.100000)"
fill="#000000" stroke="none">
<path d="M101 301 c-10 -6 -5 -12 20 -20 19 -6 68 -33 109 -61 41 -27 77 -45
79 -39 6 19 -21 69 -56 99 -28 25 -42 30 -86 30 -29 0 -58 -4 -66 -9z"/>
<path d="M36 248 c-9 -12 -16 -27 -16 -33 0 -5 54 -46 120 -89 117 -77 121
-78 140 -61 37 34 25 50 -98 129 -66 42 -122 76 -125 76 -3 0 -13 -10 -21 -22z"/>
<path d="M15 123 c17 -69 74 -113 145 -112 25 0 54 4 65 8 17 7 16 9 -10 15
-17 4 -67 32 -112 62 -46 29 -86 54 -89 54 -3 0 -3 -12 1 -27z"/>
</g>
</svg>
